<?xml version="1.0" encoding="UTF-8" standalone="no"?>
<!-- Created with Inkscape (http://www.inkscape.org/) -->

<svg
   xmlns:dc="http://purl.org/dc/elements/1.1/"
   xmlns:cc="http://creativecommons.org/ns#"
   xmlns:rdf="http://www.w3.org/1999/02/22-rdf-syntax-ns#"
   xmlns:svg="http://www.w3.org/2000/svg"
   xmlns="http://www.w3.org/2000/svg"
   xmlns:sodipodi="http://sodipodi.sourceforge.net/DTD/sodipodi-0.dtd"
   xmlns:inkscape="http://www.inkscape.org/namespaces/inkscape"
   width="77.301132"
   height="77.301132"
   viewBox="0 0 20.452591 20.452592"
   version="1.1"
   id="svg8"
   inkscape:version="0.92.4 (5da689c313, 2019-01-14)"
   sodipodi:docname="SU_logo.svg">
  <defs
     id="defs2" />
  <sodipodi:namedview
     id="base"
     pagecolor="#00ffff"
     bordercolor="#666666"
     borderopacity="1.0"
     inkscape:pageopacity="0"
     inkscape:pageshadow="2"
     inkscape:zoom="7.9195959"
     inkscape:cx="86.375287"
     inkscape:cy="33.085692"
     inkscape:document-units="mm"
     inkscape:current-layer="layer1"
     showgrid="false"
     units="px"
     fit-margin-left="0.5"
     fit-margin-top="0.5"
     fit-margin-right="0.5"
     fit-margin-bottom="0.5"
     inkscape:window-width="1920"
     inkscape:window-height="1017"
     inkscape:window-x="1912"
     inkscape:window-y="-8"
     inkscape:window-maximized="1" />
  <metadata
     id="metadata5">
    <rdf:RDF>
      <cc:Work
         rdf:about="">
        <dc:format>image/svg+xml</dc:format>
        <dc:type
           rdf:resource="http://purl.org/dc/dcmitype/StillImage" />
        <dc:title></dc:title>
      </cc:Work>
    </rdf:RDF>
  </metadata>
  <g
     inkscape:label="Layer 1"
     inkscape:groupmode="layer"
     id="layer1"
     transform="translate(-65.497266,-158.26182)">
    <g
       id="g66"
       transform="translate(4.0592751,3.0905264e-6)">
      <path
         id="path12"
         d="m 71.375478,164.69116 h 0.687917 v -1.48167 c 0,-0.18521 -0.15875,-0.34396 -0.343959,-0.34396 -0.185208,0 -0.343958,0.15875 -0.343958,0.34396 z"
         class="st0"
         inkscape:connector-curvature="0"
         style="fill:#263068;stroke-width:0.26458332" />
      <path
         id="path14"
         d="m 69.946728,164.69116 h 0.687917 v -1.48167 c 0,-0.18521 -0.15875,-0.34396 -0.343959,-0.34396 -0.185208,0 -0.343958,0.15875 -0.343958,0.34396 z"
         class="st0"
         inkscape:connector-curvature="0"
         style="fill:#263068;stroke-width:0.26458332" />
      <path
         id="path16"
         d="m 72.804228,164.69116 h 0.687917 v -1.48167 c 0,-0.18521 -0.15875,-0.34396 -0.343959,-0.34396 -0.185208,0 -0.343958,0.15875 -0.343958,0.34396 z"
         class="st0"
         inkscape:connector-curvature="0"
         style="fill:#263068;stroke-width:0.26458332" />
      <path
         id="path18"
         d="m 71.878186,159.24074 c 0.449792,0.0794 0.608542,0.47625 0.608542,0.74083 v 0.58209 h 0.423333 v 0.3175 c 1.084792,0.5027 1.852084,1.64041 1.852084,2.80458 0,0 0,0.0265 0,0.0265 v 1.00541 h 2.487083 v -1.00541 c -0.05292,-3.28084 -2.38125,-5.26521 -5.450417,-5.31813 z"
         class="st0"
         inkscape:connector-curvature="0"
         style="fill:#263068;stroke-width:0.26458332" />
      <path
         id="path20"
         d="m 71.428395,159.98157 v 0.58209 h 0.608541 v -0.58209 c 0,-0.15875 -0.132291,-0.29104 -0.291041,-0.29104 -0.185209,-0.0265 -0.3175,0.13229 -0.3175,0.29104"
         class="st0"
         inkscape:connector-curvature="0"
         style="fill:#263068;stroke-width:0.26458332" />
      <path
         id="path22"
         d="m 72.169228,166.30511 c -2.566458,-0.66145 -3.545417,-1.21708 -3.545417,-2.8575 0,-1.16416 0.79375,-2.16958 1.878542,-2.61937 v -0.26458 h 0.423333 v -0.55563 c 0,-0.29104 0.185209,-0.68792 0.635,-0.74083 l 0.07937,-0.84667 c -3.095625,0 -5.715,2.14313 -5.582708,5.02708 0.132292,3.22792 3.704167,4.15396 5.609167,4.55084 1.508125,0.3175 5.132916,1.16416 6.0325,3.73062 -0.02646,0 0.3175,-4.23333 -5.529792,-5.42396"
         class="st0"
         inkscape:connector-curvature="0"
         style="fill:#263068;stroke-width:0.26458332" />
      <path
         id="path24"
         d="m 71.322561,170.80303 c 2.592917,0.79375 3.254375,1.74625 3.254375,3.12208 0,2.09021 -1.613958,2.93688 -3.65125,2.93688 -1.931458,0 -3.598333,-0.89958 -4.709583,-2.06375 0,0 -0.423333,0.84667 -0.423333,0.84667 0.820208,1.53458 3.122083,2.93687 5.662083,2.93687 v 0 c 0,0 0,0 0,0 v 0 c 3.307292,0.0265 6.111875,-1.50812 6.111875,-4.60375 0,-3.30729 -3.624792,-4.63021 -5.635625,-5.05354 -1.5875,-0.34396 -5.55625,-1.40229 -6.270625,-3.62479 0,0 -0.79375,3.86291 5.662083,5.50333"
         class="st0"
         inkscape:connector-curvature="0"
         style="fill:#263068;stroke-width:0.26458332" />
    </g>
  </g>
  <style
     id="style10"
     type="text/css">
	.st0{fill:#263068;}
	.st1{fill:#E6332A;}
</style>
</svg>
